<svg xmlns="http://www.w3.org/2000/svg" width="680" viewBox="0 0 680 1180" style="background:#ffffff; font-family: Arial, sans-serif;">

<defs>
  <marker id="arrow" viewBox="0 0 10 10" refX="8" refY="5" markerWidth="6" markerHeight="6" orient="auto-start-reverse">
    <path d="M2 1L8 5L2 9" fill="none" stroke="#888780" stroke-width="1.5" stroke-linecap="round" stroke-linejoin="round"/>
  </marker>
</defs>

<!-- ── Title ── -->
<text x="340" y="28" text-anchor="middle" font-size="15" font-weight="600" fill="#1F3864">NorthStar — Pipeline Schema &amp; Data Flow</text>
<text x="340" y="46" text-anchor="middle" font-size="12" fill="#888780">maa_marketing_analytics · April 9 2026</text>

<!-- SOURCE SYSTEMS label -->
<text x="30" y="80" font-size="11" fill="#888780">SOURCE SYSTEMS</text>
<line x1="30" y1="84" x2="650" y2="84" stroke="#CCCCCC" stroke-width="0.5" stroke-dasharray="3 3"/>

<!-- CRM box -->
<rect x="30" y="92" width="180" height="52" rx="8" fill="#E6F1FB" stroke="#378ADD" stroke-width="0.5"/>
<text x="120" y="114" text-anchor="middle" font-size="14" font-weight="600" fill="#0C447C">CRM (Salesforce)</text>
<text x="120" y="132" text-anchor="middle" font-size="12" fill="#185FA5">6 SF files · DataSource 2</text>

<!-- Spend box -->
<rect x="250" y="92" width="180" height="52" rx="8" fill="#E1F5EE" stroke="#1D9E75" stroke-width="0.5"/>
<text x="340" y="114" text-anchor="middle" font-size="14" font-weight="600" fill="#085041">Spend (7 platforms)</text>
<text x="340" y="132" text-anchor="middle" font-size="12" fill="#0F6E56">Google · Meta · ILS · DSP · DataSource 3</text>

<!-- Ops box -->
<rect x="470" y="92" width="180" height="52" rx="8" fill="#FAEEDA" stroke="#BA7517" stroke-width="0.5"/>
<text x="560" y="114" text-anchor="middle" font-size="14" font-weight="600" fill="#633806">Ops (Yardi)</text>
<text x="560" y="132" text-anchor="middle" font-size="12" fill="#854F0B">1 flat file · DataSource 4</text>

<!-- Arrows down to bronze -->
<line x1="120" y1="144" x2="120" y2="196" stroke="#888780" stroke-width="1.2" marker-end="url(#arrow)"/>
<line x1="340" y1="144" x2="340" y2="196" stroke="#888780" stroke-width="1.2" marker-end="url(#arrow)"/>
<line x1="560" y1="144" x2="560" y2="196" stroke="#888780" stroke-width="1.2" marker-end="url(#arrow)"/>

<!-- BRONZE label -->
<text x="30" y="190" font-size="11" fill="#888780">BRONZE — Azure Blob Storage</text>
<line x1="30" y1="194" x2="650" y2="194" stroke="#CCCCCC" stroke-width="0.5" stroke-dasharray="3 3"/>

<!-- Bronze box -->
<rect x="30" y="202" width="620" height="52" rx="8" fill="#F1EFE8" stroke="#888780" stroke-width="0.5"/>
<text x="340" y="222" text-anchor="middle" font-size="14" font-weight="600" fill="#2C2C2A">Raw file archive — immutable, exactly as received</text>
<text x="340" y="240" text-anchor="middle" font-size="12" fill="#5F5E5A">blob://northstar-etl/bronze/{pipeline}/{YYYY-MM-DD}/ · 90-day retention · _metadata.json per run</text>

<!-- Arrow down to silver -->
<line x1="340" y1="254" x2="340" y2="306" stroke="#888780" stroke-width="1.2" marker-end="url(#arrow)"/>

<!-- SILVER label -->
<text x="30" y="300" font-size="11" fill="#888780">SILVER — pipeline.* schema (NEW)</text>
<line x1="30" y1="304" x2="650" y2="304" stroke="#CCCCCC" stroke-width="0.5" stroke-dasharray="3 3"/>

<!-- Standardize box -->
<rect x="30" y="312" width="196" height="64" rx="8" fill="#EEEDFE" stroke="#7F77DD" stroke-width="0.5"/>
<text x="128" y="334" text-anchor="middle" font-size="14" font-weight="600" fill="#3C3489">Standardize &amp; cleanse</text>
<text x="128" y="350" text-anchor="middle" font-size="12" fill="#534AB7">Field mapping · type coerce</text>
<text x="128" y="364" text-anchor="middle" font-size="12" fill="#534AB7">Dirty data flags</text>

<!-- Deduplicate box -->
<rect x="242" y="312" width="196" height="64" rx="8" fill="#EEEDFE" stroke="#7F77DD" stroke-width="0.5"/>
<text x="340" y="334" text-anchor="middle" font-size="14" font-weight="600" fill="#3C3489">Deduplicate</text>
<text x="340" y="350" text-anchor="middle" font-size="12" fill="#534AB7">Email/phone exact match</text>
<text x="340" y="364" text-anchor="middle" font-size="12" fill="#534AB7">Fuzzy → DEDUP_PENDING</text>

<!-- Attribution box -->
<rect x="454" y="312" width="196" height="64" rx="8" fill="#EEEDFE" stroke="#7F77DD" stroke-width="0.5"/>
<text x="552" y="334" text-anchor="middle" font-size="14" font-weight="600" fill="#3C3489">Attribution (CRM)</text>
<text x="552" y="350" text-anchor="middle" font-size="12" fill="#534AB7">ProspectKey via silver_prospects</text>
<text x="552" y="364" text-anchor="middle" font-size="12" fill="#534AB7">7-day window · e^(-0.1×days)</text>

<!-- Arrows between silver steps -->
<line x1="226" y1="344" x2="242" y2="344" stroke="#888780" stroke-width="1.2" marker-end="url(#arrow)"/>
<line x1="438" y1="344" x2="454" y2="344" stroke="#888780" stroke-width="1.2" marker-end="url(#arrow)"/>

<!-- pipeline_flags drop -->
<line x1="128" y1="376" x2="128" y2="414" stroke="#CCCCCC" stroke-width="1" marker-end="url(#arrow)"/>
<rect x="30" y="420" width="196" height="56" rx="8" fill="#FAECE7" stroke="#D85A30" stroke-width="0.5"/>
<text x="128" y="440" text-anchor="middle" font-size="14" font-weight="600" fill="#4A1B0C">pipeline_flags</text>
<text x="128" y="456" text-anchor="middle" font-size="12" fill="#993C1D">10 flag types · CHECK constraint</text>
<text x="128" y="468" text-anchor="middle" font-size="12" fill="#993C1D">Manual review queue</text>

<!-- silver_quarantine drop -->
<line x1="340" y1="376" x2="340" y2="414" stroke="#CCCCCC" stroke-width="1" marker-end="url(#arrow)"/>
<rect x="242" y="420" width="196" height="56" rx="8" fill="#FAECE7" stroke="#D85A30" stroke-width="0.5"/>
<text x="340" y="440" text-anchor="middle" font-size="14" font-weight="600" fill="#4A1B0C">silver_quarantine</text>
<text x="340" y="456" text-anchor="middle" font-size="12" fill="#993C1D">Failed quality gates</text>
<text x="340" y="468" text-anchor="middle" font-size="12" fill="#993C1D">RawData JSON · review + override</text>

<!-- silver_prospects drop -->
<line x1="552" y1="376" x2="552" y2="414" stroke="#CCCCCC" stroke-width="1" marker-end="url(#arrow)"/>
<rect x="454" y="420" width="196" height="56" rx="8" fill="#FAECE7" stroke="#D85A30" stroke-width="0.5"/>
<text x="552" y="440" text-anchor="middle" font-size="14" font-weight="600" fill="#4A1B0C">silver_prospects</text>
<text x="552" y="456" text-anchor="middle" font-size="12" fill="#993C1D">Identity authority · hash seed only</text>
<text x="552" y="468" text-anchor="middle" font-size="12" fill="#993C1D">SourceSalesforceId = durable key</text>

<!-- Arrow down to ATTR_CONFLICT -->
<line x1="340" y1="476" x2="340" y2="528" stroke="#888780" stroke-width="1.2" marker-end="url(#arrow)"/>

<!-- ATTR_CONFLICT box -->
<rect x="200" y="534" width="280" height="52" rx="8" fill="#FCEBEB" stroke="#E24B4A" stroke-width="1"/>
<text x="340" y="554" text-anchor="middle" font-size="14" font-weight="600" fill="#501313">ATTR_CONFLICT check (CRM only)</text>
<text x="340" y="570" text-anchor="middle" font-size="12" fill="#A32D2D">AttributedNewLeases &gt; NewLeases → quarantine-and-halt</text>

<!-- Arrow down to gold -->
<line x1="340" y1="586" x2="340" y2="622" stroke="#888780" stroke-width="1.2" marker-end="url(#arrow)"/>

<!-- GOLD label -->
<text x="30" y="616" font-size="11" fill="#888780">GOLD — dbo.* schema (existing + NEW columns)</text>
<line x1="30" y1="620" x2="650" y2="620" stroke="#CCCCCC" stroke-width="0.5" stroke-dasharray="3 3"/>

<!-- fact_leasing_daily -->
<rect x="30" y="628" width="186" height="72" rx="8" fill="#EAF3DE" stroke="#639922" stroke-width="0.5"/>
<text x="123" y="648" text-anchor="middle" font-size="13" font-weight="600" fill="#173404">fact_leasing_daily</text>
<text x="123" y="664" text-anchor="middle" font-size="11" fill="#3B6D11">+ DataSource TINYINT DEFAULT 1</text>
<text x="123" y="678" text-anchor="middle" font-size="11" fill="#3B6D11">+ AttributedNewLeases</text>
<text x="123" y="692" text-anchor="middle" font-size="11" fill="#3B6D11">+ UnattributedLeases</text>

<!-- fact_prospect_journey -->
<rect x="228" y="628" width="186" height="72" rx="8" fill="#EAF3DE" stroke="#639922" stroke-width="0.5"/>
<text x="321" y="648" text-anchor="middle" font-size="13" font-weight="600" fill="#173404">fact_prospect_journey</text>
<text x="321" y="664" text-anchor="middle" font-size="11" fill="#3B6D11">+ DataSource TINYINT DEFAULT 1</text>
<text x="321" y="678" text-anchor="middle" font-size="11" fill="#3B6D11">+ LeaseValue DECIMAL(10,2)</text>
<text x="321" y="692" text-anchor="middle" font-size="11" fill="#3B6D11">2.5M rows · CRM target</text>

<!-- fact_spend -->
<rect x="426" y="628" width="112" height="72" rx="8" fill="#EAF3DE" stroke="#639922" stroke-width="0.5"/>
<text x="482" y="648" text-anchor="middle" font-size="13" font-weight="600" fill="#173404">fact_spend</text>
<text x="482" y="664" text-anchor="middle" font-size="11" fill="#3B6D11">+ DataSource</text>
<text x="482" y="678" text-anchor="middle" font-size="11" fill="#3B6D11">1.09M rows</text>
<text x="482" y="692" text-anchor="middle" font-size="11" fill="#3B6D11">Spend target</text>

<!-- fact_funnel -->
<rect x="550" y="628" width="100" height="72" rx="8" fill="#EAF3DE" stroke="#639922" stroke-width="0.5"/>
<text x="600" y="648" text-anchor="middle" font-size="13" font-weight="600" fill="#173404">fact_funnel</text>
<text x="600" y="664" text-anchor="middle" font-size="11" fill="#3B6D11">+ DataSource</text>
<text x="600" y="678" text-anchor="middle" font-size="11" fill="#3B6D11">~10M rows</text>
<text x="600" y="692" text-anchor="middle" font-size="11" fill="#3B6D11">Spend target</text>

<!-- fact_ops -->
<line x1="123" y1="700" x2="123" y2="714" stroke="#888780" stroke-width="1.2" marker-end="url(#arrow)"/>
<rect x="30" y="714" width="186" height="56" rx="8" fill="#EAF3DE" stroke="#639922" stroke-width="0.5"/>
<text x="123" y="734" text-anchor="middle" font-size="13" font-weight="600" fill="#173404">fact_property_ops_daily</text>
<text x="123" y="750" text-anchor="middle" font-size="11" fill="#3B6D11">+ DataSource TINYINT DEFAULT 1</text>
<text x="123" y="764" text-anchor="middle" font-size="11" fill="#3B6D11">99,360 rows · Ops target</text>

<!-- DIM ADDITIONS label -->
<text x="250" y="710" font-size="11" fill="#888780">DIM ADDITIONS (Section 1)</text>

<!-- dim_vendor -->
<rect x="228" y="714" width="186" height="56" rx="8" fill="#E6F1FB" stroke="#378ADD" stroke-width="0.5"/>
<text x="321" y="734" text-anchor="middle" font-size="13" font-weight="600" fill="#042C53">dim_vendor + VendorKey 12</text>
<text x="321" y="750" text-anchor="middle" font-size="11" fill="#185FA5">Organic / Direct · ChannelKey 6</text>
<text x="321" y="764" text-anchor="middle" font-size="11" fill="#185FA5">Zero spend · no IsDirectCredit</text>

<!-- dim_channel -->
<rect x="426" y="714" width="224" height="56" rx="8" fill="#E6F1FB" stroke="#378ADD" stroke-width="0.5"/>
<text x="538" y="734" text-anchor="middle" font-size="13" font-weight="600" fill="#042C53">dim_channel + ChannelKey 6</text>
<text x="538" y="750" text-anchor="middle" font-size="11" fill="#185FA5">Organic · auto-excluded from paid</text>
<text x="538" y="764" text-anchor="middle" font-size="11" fill="#185FA5">DAX filter already in model</text>

<!-- PIPELINE CONTROL TABLES label -->
<text x="30" y="790" font-size="11" fill="#888780">PIPELINE CONTROL TABLES — pipeline.* schema (NEW)</text>
<line x1="30" y1="794" x2="650" y2="794" stroke="#CCCCCC" stroke-width="0.5" stroke-dasharray="3 3"/>

<!-- pipeline_watermarks -->
<rect x="30" y="800" width="180" height="56" rx="8" fill="#F1EFE8" stroke="#888780" stroke-width="0.5"/>
<text x="120" y="820" text-anchor="middle" font-size="13" font-weight="600" fill="#2C2C2A">pipeline_watermarks</text>
<text x="120" y="836" text-anchor="middle" font-size="11" fill="#5F5E5A">Last run per pipeline</text>
<text x="120" y="848" text-anchor="middle" font-size="11" fill="#5F5E5A">Seeded: 3 rows NEVER_RUN</text>

<!-- pipeline_runs -->
<rect x="222" y="800" width="180" height="56" rx="8" fill="#F1EFE8" stroke="#888780" stroke-width="0.5"/>
<text x="312" y="820" text-anchor="middle" font-size="13" font-weight="600" fill="#2C2C2A">pipeline_runs</text>
<text x="312" y="836" text-anchor="middle" font-size="11" fill="#5F5E5A">Full execution log</text>
<text x="312" y="848" text-anchor="middle" font-size="11" fill="#5F5E5A">ETL Dashboard source</text>

<!-- campaign_vendor_lookup -->
<rect x="414" y="800" width="236" height="56" rx="8" fill="#F1EFE8" stroke="#888780" stroke-width="0.5"/>
<text x="532" y="820" text-anchor="middle" font-size="13" font-weight="600" fill="#2C2C2A">campaign_vendor_lookup</text>
<text x="532" y="836" text-anchor="middle" font-size="11" fill="#5F5E5A">CampaignId → VendorKey/ChannelKey</text>
<text x="532" y="848" text-anchor="middle" font-size="11" fill="#5F5E5A">Seeded: 12 Apr 2026 campaigns</text>

<!-- DATASOURCE LEGEND label -->
<text x="30" y="882" font-size="11" fill="#888780">DATASOURCE PARTITION</text>
<line x1="30" y1="886" x2="650" y2="886" stroke="#CCCCCC" stroke-width="0.5" stroke-dasharray="3 3"/>

<!-- Legend boxes -->
<rect x="30"  y="892" width="136" height="36" rx="6" fill="#F1EFE8" stroke="#888780" stroke-width="0.5"/>
<text x="98"  y="914" text-anchor="middle" font-size="11" fill="#2C2C2A">1 — Synthetic (existing)</text>

<rect x="178" y="892" width="116" height="36" rx="6" fill="#E6F1FB" stroke="#378ADD" stroke-width="0.5"/>
<text x="236" y="914" text-anchor="middle" font-size="11" fill="#0C447C">2 — CRM Pipeline</text>

<rect x="306" y="892" width="120" height="36" rx="6" fill="#E1F5EE" stroke="#1D9E75" stroke-width="0.5"/>
<text x="366" y="914" text-anchor="middle" font-size="11" fill="#085041">3 — Spend Pipeline</text>

<rect x="438" y="892" width="112" height="36" rx="6" fill="#FAEEDA" stroke="#BA7517" stroke-width="0.5"/>
<text x="494" y="914" text-anchor="middle" font-size="11" fill="#633806">4 — Ops Pipeline</text>

<text x="562" y="914" text-anchor="start" font-size="11" fill="#888780">All DEFAULT 1</text>

<!-- Arrow to Power BI -->
<line x1="340" y1="932" x2="340" y2="962" stroke="#888780" stroke-width="1.2" marker-end="url(#arrow)"/>

<!-- Power BI box -->
<rect x="140" y="968" width="400" height="52" rx="8" fill="#EEEDFE" stroke="#7F77DD" stroke-width="0.5"/>
<text x="340" y="988" text-anchor="middle" font-size="14" font-weight="600" fill="#3C3489">Power BI — no DAX changes needed</text>
<text x="340" y="1004" text-anchor="middle" font-size="12" fill="#534AB7">ALL() / ALLSELECTED() includes all DataSource values · add slicer to filter</text>

<!-- NEXT STEPS -->
<line x1="30" y1="1040" x2="650" y2="1040" stroke="#CCCCCC" stroke-width="0.5" stroke-dasharray="3 3"/>
<text x="30" y="1056" font-size="11" fill="#888780">NEXT STEPS AFTER VERIFICATION</text>

<rect x="30"  y="1062" width="192" height="52" rx="8" fill="#FAECE7" stroke="#D85A30" stroke-width="0.5"/>
<text x="126" y="1082" text-anchor="middle" font-size="13" font-weight="600" fill="#4A1B0C">Generator guard patch</text>
<text x="126" y="1098" text-anchor="middle" font-size="11" fill="#993C1D">WHERE DataSource = 1</text>
<text x="126" y="1110" text-anchor="middle" font-size="11" fill="#993C1D">to clear_sql_tables() · Apr 10</text>

<rect x="234" y="1062" width="192" height="52" rx="8" fill="#E6F1FB" stroke="#378ADD" stroke-width="0.5"/>
<text x="330" y="1082" text-anchor="middle" font-size="13" font-weight="600" fill="#042C53">crm_pipeline.py</text>
<text x="330" y="1098" text-anchor="middle" font-size="11" fill="#185FA5">Build starts now · Apr 9</text>
<text x="330" y="1110" text-anchor="middle" font-size="11" fill="#185FA5">Reads 6 SF source files</text>

<rect x="438" y="1062" width="192" height="52" rx="8" fill="#E1F5EE" stroke="#1D9E75" stroke-width="0.5"/>
<text x="534" y="1082" text-anchor="middle" font-size="13" font-weight="600" fill="#04342C">spend_pipeline.py</text>
<text x="534" y="1098" text-anchor="middle" font-size="11" fill="#0F6E56">Build starts Apr 9</text>
<text x="534" y="1110" text-anchor="middle" font-size="11" fill="#0F6E56">Reads 7 platform files</text>

</svg>
